<?xml version="1.0" encoding="UTF-8"?>
<svg width="65px" height="48px" viewBox="0 0 65 48" version="1.1" xmlns="http://www.w3.org/2000/svg" xmlns:xlink="http://www.w3.org/1999/xlink">
    <!-- Generator: Sketch 64 (93537) - https://sketch.com -->
    <title>SM 2SM logo</title>
    <desc>Created with Sketch.</desc>
    <g id="Page-1" stroke="none" stroke-width="1" fill="none" fill-rule="evenodd">
        <g id="Artboard" transform="translate(-128.000000, -112.000000)" fill="#000000" fill-rule="nonzero">
            <g id="SM-2" transform="translate(128.747136, 112.983129)">
                <path d="M61.3195305,6.01793798 L61.4848638,6.01927131 C61.9968638,6.05127131 62.4448638,6.24327131 62.8288638,6.59527131 C63.2128638,6.94727131 63.4048638,7.41127131 63.4048638,7.98727131 L63.4048638,7.98727131 L63.404,36.518 L63.4088431,36.5182265 L63.4088431,46.1241026 L1.20034867,46.1241026 C0.400116223,46.1241026 7.10542736e-15,45.5606258 7.10542736e-15,44.4336722 C7.10542736e-15,43.3067186 0.400116223,42.6810021 1.20034867,42.5565226 L1.20034867,42.5565226 L59.4015873,42.5565226 L59.4013083,38.0500861 C59.3823453,37.9370985 59.3728638,37.8201602 59.3728638,37.6992713 L59.3728638,37.6992713 L59.3718638,13.7002713 L49.2448638,29.1072713 C49.0528638,29.3312713 48.8208638,29.5232713 48.5488638,29.6832713 C48.2768638,29.8432713 47.9968638,29.9232713 47.7088638,29.9232713 C47.4208638,29.9232713 47.1328638,29.8432713 46.8448638,29.6832713 L46.8448638,29.6832713 L46.6778238,29.5834313 C46.4627838,29.4451913 46.2784638,29.2864713 46.1248638,29.1072713 L46.1248638,29.1072713 L35.9478638,13.4282713 L35.9488638,37.6992713 C35.9488638,38.2432713 35.7728638,38.7072713 35.4208638,39.0912713 C35.0688638,39.4752713 34.6208638,39.6672713 34.0768638,39.6672713 C33.5328638,39.6672713 33.0928638,39.4752713 32.7568638,39.0912713 C32.4208638,38.7072713 32.2528638,38.2432713 32.2528638,37.6992713 L32.2528638,37.6992713 L32.2528638,7.98727131 C32.2528638,7.47527131 32.4368638,7.01927131 32.8048638,6.61927131 C33.1728638,6.21927131 33.6448638,6.01927131 34.2208638,6.01927131 C34.5088638,6.01927131 34.8208638,6.09927131 35.1568638,6.25927131 L35.1568638,6.25927131 L35.3498238,6.36103131 C35.5955838,6.50439131 35.7952638,6.67847131 35.9488638,6.88327131 L35.9488638,6.88327131 L47.8178638,24.8442713 L59.8528638,6.88327131 C60.2688638,6.27527131 60.8128638,5.98727131 61.4848638,6.01927131 Z M0.301147167,39.6164719 L0.301147167,1.42108547e-14 L62.3652892,1.42108547e-14 C63.1737461,1.42108547e-14 63.5779746,0.612906364 63.5779746,1.83871909 C63.5779746,3.06453182 63.1737461,3.6959542 62.3652892,3.73298622 L3.74534029,3.73298622 L3.745,35.832 L17.3488638,35.8328713 C18.6160638,35.8328713 19.7731038,35.6514313 20.8199838,35.2885513 L21.1648638,35.1608713 C22.3008638,34.7128713 23.2048638,34.0888713 23.8768638,33.2888713 C24.5488638,32.4888713 24.8848638,31.5608713 24.8848638,30.5048713 C24.8528638,29.2248713 24.4768638,28.1688713 23.7568638,27.3368713 C23.0368638,26.5048713 22.0448638,25.8088713 20.7808638,25.2488713 C19.5168638,24.6888713 18.0528638,24.2168713 16.3888638,23.8328713 C14.9168638,23.4808713 13.5648638,23.0488713 12.3328638,22.5368713 C11.1008638,22.0248713 10.0368638,21.3928713 9.14086383,20.6408713 C8.24486383,19.8888713 7.54886383,18.9768713 7.05286383,17.9048713 C6.55686383,16.8328713 6.30886383,15.5768713 6.30886383,14.1368713 C6.30886383,12.3128713 6.78886383,10.7128713 7.74886383,9.33687131 C8.70886383,7.96087131 10.0368638,6.89687131 11.7328638,6.14487131 C13.4288638,5.39287131 15.3808638,5.01687131 17.5888638,5.01687131 C19.5408638,5.01687131 21.3888638,5.33687131 23.1328638,5.97687131 C24.8768638,6.61687131 26.2768638,7.49687131 27.3328638,8.61687131 C27.9728638,9.22487131 28.2928638,9.81687131 28.2928638,10.3928713 C28.2928638,10.8728713 28.0928638,11.3128713 27.6928638,11.7128713 C27.2928638,12.1128713 26.8368638,12.3128713 26.3248638,12.3128713 C25.9728638,12.3128713 25.6528638,12.1848713 25.3648638,11.9288713 C24.8208638,11.3208713 24.1328638,10.7768713 23.3008638,10.2968713 C22.4688638,9.81687131 21.5568638,9.43287131 20.5648638,9.14487131 C19.5728638,8.85687131 18.5808638,8.71287131 17.5888638,8.71287131 C16.1168638,8.71287131 14.8208638,8.92887131 13.7008638,9.36087131 C12.5808638,9.79287131 11.7088638,10.4008713 11.0848638,11.1848713 C10.4608638,11.9688713 10.1488638,12.9048713 10.1488638,13.9928713 C10.1488638,15.2088713 10.5008638,16.2088713 11.2048638,16.9928713 C11.9088638,17.7768713 12.8528638,18.4168713 14.0368638,18.9128713 C15.2208638,19.4088713 16.5328638,19.8488713 17.9728638,20.2328713 C19.5408638,20.6168713 20.9888638,21.0568713 22.3168638,21.5528713 C23.6448638,22.0488713 24.7888638,22.6648713 25.7488638,23.4008713 C26.7088638,24.1368713 27.4528638,25.0728713 27.9808638,26.2088713 C28.5088638,27.3448713 28.7728638,28.7448713 28.7728638,30.4088713 C28.7728638,32.1688713 28.2768638,33.7368713 27.2848638,35.1128713 C26.2928638,36.4888713 24.9408638,37.5768713 23.2288638,38.3768713 C21.5168638,39.1768713 19.5888638,39.5768713 17.4448638,39.5768713 C15.0768638,39.6088713 12.3328638,39.5768713 10.1488638,39.5768713 L10.1488638,39.5768713 L2.327,39.576 L0.301147167,39.6164719 Z" id="SM"></path>
            </g>
        </g>
    </g>
</svg>