<?xml version="1.0" encoding="UTF-8"?>
<svg width="65px" height="48px" viewBox="0 0 65 48" version="1.1" xmlns="http://www.w3.org/2000/svg" xmlns:xlink="http://www.w3.org/1999/xlink">
    <!-- Generator: Sketch 64 (93537) - https://sketch.com -->
    <title>saramishina-logo!</title>
    <desc>Created with Sketch.</desc>
    <g id="Page-1" stroke="none" stroke-width="1" fill="none" fill-rule="evenodd">
        <g id="saramishina-logo" fill="#000000" fill-rule="nonzero">
            <path d="M62.0666665,7.00106698 L62.2319998,7.00240031 C62.7439998,7.03440031 63.1919998,7.22640031 63.5759998,7.57840031 C63.9599998,7.93040031 64.1519998,8.39440031 64.1519998,8.97040031 L64.1519998,8.97040031 L64.151136,37.501129 L64.1559791,37.5013555 L64.1559791,47.1072316 L1.94748467,47.1072316 C1.14725222,47.1072316 0.747136,46.5437548 0.747136,45.4168012 C0.747136,44.2898476 1.14725222,43.6641311 1.94748467,43.5396516 L1.94748467,43.5396516 L60.1487233,43.5396516 L60.1484443,39.0332151 C60.1294813,38.9202275 60.1199998,38.8032892 60.1199998,38.6824003 L60.1199998,38.6824003 L60.1189998,14.6834003 L49.9919998,30.0904003 C49.7999998,30.3144003 49.5679998,30.5064003 49.2959998,30.6664003 C49.0239998,30.8264003 48.7439998,30.9064003 48.4559998,30.9064003 C48.1679998,30.9064003 47.8799998,30.8264003 47.5919998,30.6664003 L47.5919998,30.6664003 L47.4249598,30.5665603 C47.2099198,30.4283203 47.0255998,30.2696003 46.8719998,30.0904003 L46.8719998,30.0904003 L36.6949998,14.4114003 L36.6959998,38.6824003 C36.6959998,39.2264003 36.5199998,39.6904003 36.1679998,40.0744003 C35.8159998,40.4584003 35.3679998,40.6504003 34.8239998,40.6504003 C34.2799998,40.6504003 33.8399998,40.4584003 33.5039998,40.0744003 C33.1679998,39.6904003 32.9999998,39.2264003 32.9999998,38.6824003 L32.9999998,38.6824003 L32.9999998,8.97040031 C32.9999998,8.45840031 33.1839998,8.00240031 33.5519998,7.60240031 C33.9199998,7.20240031 34.3919998,7.00240031 34.9679998,7.00240031 C35.2559998,7.00240031 35.5679998,7.08240031 35.9039998,7.24240031 L35.9039998,7.24240031 L36.0969598,7.34416031 C36.3427198,7.48752031 36.5423998,7.66160031 36.6959998,7.86640031 L36.6959998,7.86640031 L48.5649998,25.8274003 L60.5999998,7.86640031 C61.0159998,7.25840031 61.5599998,6.97040031 62.2319998,7.00240031 L62.0666665,7.00106698 Z M1.04828317,40.5996009 L1.04828317,0.983129 L63.1124252,0.983129 C63.9208821,0.983129 64.3251106,1.59603536 64.3251106,2.82184809 C64.3251106,4.04766082 63.9208821,4.6790832 63.1124252,4.71611522 L4.49247629,4.71611522 L4.492136,36.815129 L18.0959998,36.8160003 C19.3631998,36.8160003 20.5202398,36.6345603 21.5671198,36.2716803 L21.9119998,36.1440003 C23.0479998,35.6960003 23.9519998,35.0720003 24.6239998,34.2720003 C25.2959998,33.4720003 25.6319998,32.5440003 25.6319998,31.4880003 C25.5999998,30.2080003 25.2239998,29.1520003 24.5039998,28.3200003 C23.7839998,27.4880003 22.7919998,26.7920003 21.5279998,26.2320003 C20.2639998,25.6720003 18.7999998,25.2000003 17.1359998,24.8160003 C15.6639998,24.4640003 14.3119998,24.0320003 13.0799998,23.5200003 C11.8479998,23.0080003 10.7839998,22.3760003 9.88799983,21.6240003 C8.99199983,20.8720003 8.29599983,19.9600003 7.79999983,18.8880003 C7.30399983,17.8160003 7.05599983,16.5600003 7.05599983,15.1200003 C7.05599983,13.2960003 7.53599983,11.6960003 8.49599983,10.3200003 C9.45599983,8.94400031 10.7839998,7.88000031 12.4799998,7.12800031 C14.1759998,6.37600031 16.1279998,6.00000031 18.3359998,6.00000031 C20.2879998,6.00000031 22.1359998,6.32000031 23.8799998,6.96000031 C25.6239998,7.60000031 27.0239998,8.48000031 28.0799998,9.60000031 C28.7199998,10.2080003 29.0399998,10.8000003 29.0399998,11.3760003 C29.0399998,11.8560003 28.8399998,12.2960003 28.4399998,12.6960003 C28.0399998,13.0960003 27.5839998,13.2960003 27.0719998,13.2960003 C26.7199998,13.2960003 26.3999998,13.1680003 26.1119998,12.9120003 C25.5679998,12.3040003 24.8799998,11.7600003 24.0479998,11.2800003 C23.2159998,10.8000003 22.3039998,10.4160003 21.3119998,10.1280003 C20.3199998,9.84000031 19.3279998,9.69600031 18.3359998,9.69600031 C16.8639998,9.69600031 15.5679998,9.91200031 14.4479998,10.3440003 C13.3279998,10.7760003 12.4559998,11.3840003 11.8319998,12.1680003 C11.2079998,12.9520003 10.8959998,13.8880003 10.8959998,14.9760003 C10.8959998,16.1920003 11.2479998,17.1920003 11.9519998,17.9760003 C12.6559998,18.7600003 13.5999998,19.4000003 14.7839998,19.8960003 C15.9679998,20.3920003 17.2799998,20.8320003 18.7199998,21.2160003 C20.2879998,21.6000003 21.7359998,22.0400003 23.0639998,22.5360003 C24.3919998,23.0320003 25.5359998,23.6480003 26.4959998,24.3840003 C27.4559998,25.1200003 28.1999998,26.0560003 28.7279998,27.1920003 C29.2559998,28.3280003 29.5199998,29.7280003 29.5199998,31.3920003 C29.5199998,33.1520003 29.0239998,34.7200003 28.0319998,36.0960003 C27.0399998,37.4720003 25.6879998,38.5600003 23.9759998,39.3600003 C22.2639998,40.1600003 20.3359998,40.5600003 18.1919998,40.5600003 C15.8239998,40.5920003 13.0799998,40.5600003 10.8959998,40.5600003 L10.8959998,40.5600003 L3.074136,40.559129 L1.04828317,40.5996009 Z" id="SM"></path>
        </g>
    </g>
</svg>